<?xml version="1.0" encoding="UTF-8"?>
<!DOCTYPE svg PUBLIC "-//W3C//DTD SVG 1.1//EN" "http://www.w3.org/Graphics/SVG/1.1/DTD/svg11.dtd">
<svg xmlns="http://www.w3.org/2000/svg" version="1.1" width="128px" height="128px" style="shape-rendering:geometricPrecision; text-rendering:geometricPrecision; image-rendering:optimizeQuality; fill-rule:evenodd; clip-rule:evenodd" xmlns:xlink="http://www.w3.org/1999/xlink">
<g><path style="opacity:1" fill="#e10000" d="M 52.5,4.5 C 60.5435,4.56457 68.3768,4.56457 76,4.5C 76.6667,5.16667 76.6667,5.83333 76,6.5C 72.6667,9.83333 69.3333,13.1667 66,16.5C 35.6509,17.3412 18.8176,33.0078 15.5,63.5C 15.8907,72.5023 18.3907,80.8357 23,88.5C 25.0165,86.316 27.1831,84.316 29.5,82.5C 31.393,91.4176 32.7263,100.418 33.5,109.5C 24.5317,108.219 15.5317,107.219 6.5,106.5C 8.5094,102.973 11.1761,99.8061 14.5,97C 5.33793,83.528 2.17127,68.6947 5,52.5C 11.0143,26.6529 26.8476,10.6529 52.5,4.5 Z"/></g>
<g><path style="opacity:1" fill="#e10000" d="M 89.5,13.5 C 98.9513,14.6114 108.285,16.2781 117.5,18.5C 114.683,20.8167 112.016,23.3167 109.5,26C 123.122,44.0491 126.289,63.8824 119,85.5C 103.522,116.786 78.6891,128.286 44.5,120C 47.5,117 50.5,114 53.5,111C 87.7099,113.287 107.043,97.4541 111.5,63.5C 111.054,52.656 107.554,42.9893 101,34.5C 98.6094,37.5968 95.776,39.7635 92.5,41C 92.8333,40.6667 93.1667,40.3333 93.5,40C 91.7519,31.2655 90.4186,22.4321 89.5,13.5 Z"/></g>
<g><path style="opacity:0.83" fill="#630101" d="M 85.5,34.5 C 89.0003,34.4954 90.5003,36.1621 90,39.5C 86.4201,42.316 84.0867,45.9826 83,50.5C 78.1555,65.6987 73.3222,80.8654 68.5,96C 66.9556,97.1871 65.2889,97.5205 63.5,97C 56.3637,85.2304 49.8637,73.0638 44,60.5C 41.4,56.2868 38.5667,52.2868 35.5,48.5C 33.8091,44.9973 34.9758,42.9973 39,42.5C 40.2613,42.7591 41.2613,43.4258 42,44.5C 50.4483,59.0625 58.1149,74.0625 65,89.5C 69.0234,75.4069 73.3568,61.4069 78,47.5C 79.4969,42.5231 81.9969,38.1897 85.5,34.5 Z"/></g>
</svg>
